<svg width="32" height="32" viewBox="0 0 32 32" fill="none" xmlns="http://www.w3.org/2000/svg">
<g clip-path="url(#clip0_1001_60)">
<path d="M21.3912 3.99999C21.8565 4.14228 22.2226 4.39631 22.3483 4.89584C22.3823 5.04806 22.3977 5.20386 22.3939 5.35979C22.3966 7.75039 22.3966 10.1407 22.3939 12.5306C22.3952 12.6085 22.3907 12.6863 22.3804 12.7636C22.3473 12.9745 22.2021 13.1053 22.0002 13.1028C21.7834 13.0998 21.6496 12.9875 21.6126 12.7726C21.5981 12.6731 21.5917 12.5725 21.5936 12.472C21.5936 10.1204 21.5936 7.76926 21.5936 5.41842C21.5936 4.90987 21.4859 4.80315 20.974 4.80315H5.42243C4.91857 4.80315 4.80688 4.91638 4.80688 5.42693V26.5851C4.80688 27.0921 4.91706 27.2013 5.42894 27.2013H20.983C21.4889 27.2013 21.5961 27.0926 21.5961 26.5801C21.5961 25.3926 21.5961 24.2053 21.5961 23.0182C21.5939 22.9401 21.5972 22.8619 21.6061 22.7842C21.6396 22.5427 21.7879 22.4075 22.0068 22.4115C22.2256 22.4155 22.3789 22.5578 22.3889 22.8008C22.4034 23.1515 22.3969 23.5022 22.3969 23.8529C22.3969 24.7825 22.3969 25.7119 22.3969 26.6412C22.3944 27.5255 21.9191 27.9975 21.0331 27.9975H5.38587C4.47581 27.9975 4.00902 27.5255 4.00902 26.6066C4.00902 19.5841 4.00601 12.562 4 5.54017C4 4.77459 4.23841 4.23748 4.9927 3.99799L21.3912 3.99999Z" fill="#D61116"/>
<path d="M27.6009 10.981L27.6166 10.9473C27.6607 10.8523 27.7035 10.76 27.7456 10.6694C27.8161 10.5175 27.8844 10.3705 27.9524 10.2235L27.9491 9.82094C27.9448 9.80925 27.9404 9.79735 27.936 9.78531C27.9229 9.7498 27.9093 9.71305 27.8978 9.6769L27.8975 9.67607L27.8975 9.67607C27.8135 9.3967 27.6266 9.15963 27.3747 9.01268C27.1227 8.86572 26.8245 8.81982 26.54 8.88423L26.5396 8.88432C26.1472 8.96969 25.899 9.23526 25.7021 9.58492C25.7021 9.58494 25.7021 9.58497 25.7021 9.58499L25.6585 9.56046C25.6194 9.6301 25.5147 9.71377 25.4476 9.70776L27.6009 10.981ZM27.6009 10.981L27.6287 11.0057M27.6009 10.981L27.6287 11.0057M27.6287 11.0057C27.7452 11.1094 27.7805 11.2129 27.7729 11.3187C27.7649 11.429 27.7101 11.5479 27.6316 11.6786L27.6316 11.6787M27.6287 11.0057L27.6316 11.6787M27.6316 11.6787C27.4187 12.0335 27.2133 12.3924 27.0046 12.7568C26.9184 12.9074 26.8317 13.0589 26.7436 13.2116L26.7191 13.2541M27.6316 11.6787L26.7191 13.2541M26.7191 13.2541L26.7612 13.2794M26.7191 13.2541L26.7612 13.2794M26.7612 13.2794C26.7772 13.289 26.7929 13.2984 26.8084 13.3077C26.8999 13.3626 26.9835 13.4127 27.0667 13.464L27.0669 13.4641M26.7612 13.2794L27.0669 13.4641M27.0669 13.4641C27.3682 13.6484 27.5635 13.8997 27.642 14.1785C27.7205 14.4569 27.6839 14.7674 27.5131 15.073C27.104 15.8044 26.6825 16.5289 26.2608 17.2538C26.1608 17.4257 26.0608 17.5977 25.9609 17.7698C25.894 17.8849 25.8108 17.9552 25.7256 17.9852C25.6413 18.015 25.55 18.0071 25.4607 17.9568L25.4606 17.9568M27.0669 13.4641L25.4606 17.9568M25.4606 17.9568C25.3663 17.9038 25.3121 17.8287 25.2958 17.7401C25.2793 17.65 25.3007 17.539 25.3718 17.4144L25.3719 17.4144C25.7027 16.8347 26.036 16.2565 26.3694 15.6781C26.5114 15.4318 26.6534 15.1854 26.7952 14.9389M25.4606 17.9568L26.7952 14.9389M26.7952 14.9389C26.8733 14.8033 26.93 14.6875 26.9602 14.5856C26.9907 14.4832 26.9954 14.3912 26.9646 14.3061C26.934 14.2214 26.8709 14.1508 26.7802 14.0857C26.6899 14.0209 26.5686 13.9589 26.4162 13.8926L26.3763 13.8753L26.3536 13.9124C26.342 13.9314 26.3299 13.9508 26.3177 13.9705C26.2866 14.0206 26.2544 14.0726 26.2242 14.125L26.2242 14.125C25.9536 14.5948 25.6819 15.064 25.4103 15.5333C24.7203 16.7251 24.0302 17.9171 23.357 19.1188L23.4006 19.1432L23.357 19.1188C23.0494 19.6679 22.6648 20.151 22.2751 20.6404C22.1989 20.736 22.1226 20.8319 22.0466 20.9286L22.0465 20.9286C21.6952 21.3765 21.3605 21.8376 21.0426 22.312L21.0426 22.312C20.8929 22.5358 20.7234 22.7015 20.5257 22.8058C20.3284 22.91 20.0998 22.9547 19.8288 22.9313L19.8288 22.931L19.8235 22.9311C19.7703 22.9322 19.7178 22.9442 19.6694 22.9663C19.6209 22.9885 19.5776 23.0203 19.5419 23.0599L19.5419 23.0599L19.5408 23.0612C19.3886 23.2425 19.2408 23.4306 19.0937 23.618C18.9843 23.7572 18.8753 23.896 18.765 24.0313L18.765 24.0313C18.5428 24.3042 18.2683 24.4105 18.0205 24.3746C17.7727 24.3388 17.5398 24.1591 17.404 23.8357C17.3606 23.7318 17.3185 23.6278 17.2734 23.5162C17.2472 23.4514 17.2199 23.3839 17.1907 23.3125L17.1579 23.2319L17.1048 23.3009C17.0881 23.3226 17.072 23.3426 17.0567 23.3617C17.0288 23.3964 17.0036 23.4278 16.9826 23.4596L17.0242 23.4872M26.7952 14.9389L22.0859 20.9595C21.7353 21.4064 21.4014 21.8665 21.0842 22.3398C20.7782 22.7973 20.383 23.0292 19.8245 22.9811C19.7781 22.982 19.7324 22.9925 19.6902 23.0118C19.648 23.0311 19.6102 23.0589 19.5791 23.0934C19.4269 23.2746 19.2805 23.461 19.1341 23.6474C19.0249 23.7866 18.9156 23.9258 18.8038 24.0629C18.3415 24.6305 17.6403 24.5278 17.3578 23.8549C17.3144 23.7509 17.2721 23.6464 17.2269 23.5345C17.2073 23.4862 17.1872 23.4365 17.1662 23.3848C17.1719 23.3775 17.1779 23.3699 17.1841 23.3618L17.1445 23.3314L17.0982 23.3503C17.1018 23.3591 17.1053 23.3679 17.1089 23.3766C17.1036 23.3832 17.0985 23.3895 17.0936 23.3957C17.0669 23.4289 17.0442 23.4571 17.0242 23.4872M17.0242 23.4872C16.7848 23.8419 16.4533 23.9957 16.1122 23.908M17.0242 23.4872L16.9828 23.4592C16.7519 23.8014 16.44 23.9407 16.1247 23.8596L16.1122 23.908M16.1122 23.908C15.7451 23.8134 15.5257 23.5122 15.4916 23.0678L16.1246 23.8596M16.1122 23.908L16.1246 23.8596M15.3309 21.7105C15.3362 21.7419 15.3414 21.7733 15.3466 21.8047C15.3478 21.8017 15.3491 21.7986 15.3503 21.7956C15.3592 21.7739 15.3683 21.7519 15.3774 21.7288L15.3309 21.7105ZM15.3309 21.7105L15.2816 21.7189C15.2861 21.7455 15.2906 21.7722 15.2949 21.7988C15.2983 21.7906 15.3016 21.7825 15.305 21.7743C15.3137 21.7531 15.3225 21.7319 15.3309 21.7105ZM15.2542 21.9064L15.2068 21.8907L15.2542 21.9064ZM15.2542 21.9064L15.2067 21.8907L15.2542 21.9064ZM24.1159 11.4228C24.0908 11.4656 24.0631 11.507 24.0359 11.5476C24.0224 11.5678 24.009 11.5878 23.9962 11.6077C23.4212 11.3431 23.2494 11.3351 23.1101 11.5721C22.9709 11.8091 23.0661 11.9624 23.5865 12.3297C23.567 12.3632 23.5476 12.3984 23.528 12.434C23.5066 12.4728 23.4849 12.512 23.4627 12.5501L23.506 12.5751C22.453 14.3995 21.4012 16.2245 20.3508 18.0502L23.506 12.5753C23.5276 12.5381 23.5486 12.5001 23.5691 12.4629L23.5716 12.4584C23.5913 12.4227 23.6106 12.3879 23.6297 12.3547L23.6526 12.3152L23.6153 12.2888C23.354 12.1044 23.2086 11.9795 23.1433 11.8755C23.1119 11.8254 23.1006 11.7825 23.1026 11.7412C23.1046 11.6989 23.1207 11.6529 23.1532 11.5974C23.186 11.5417 23.2179 11.5052 23.2533 11.4827C23.2878 11.4607 23.3297 11.4494 23.3877 11.4518C23.5085 11.4568 23.6863 11.5202 23.9753 11.6531L24.0146 11.6712L24.0381 11.6348C24.0501 11.6163 24.063 11.597 24.0763 11.5771C24.1039 11.5359 24.1332 11.4921 24.159 11.4481L24.1159 11.4228ZM24.1159 11.4228L24.159 11.4481L24.1159 11.4228ZM16.1246 23.8596C15.7831 23.7715 15.5744 23.4925 15.5415 23.0642L16.1246 23.8596ZM25.1792 9.81103C25.2481 9.76885 25.3325 9.74832 25.4433 9.75757L24.9548 9.98834L24.9981 10.0134C24.9981 10.0134 24.9981 10.0134 24.9981 10.0133C25.0513 9.92129 25.1095 9.85374 25.1792 9.81103ZM25.4361 18.0004C25.2248 17.8816 25.1782 17.6526 25.3284 17.3896C25.6593 16.8098 25.9927 16.2315 26.3261 15.6531C26.4681 15.4068 26.6101 15.1604 26.7519 14.914L25.4361 18.0004ZM14.4063 24.4582L14.3589 24.4422C14.3589 24.4422 14.3589 24.4422 14.3589 24.4422L14.4063 24.4582ZM19.0015 22.3721C18.791 21.962 18.8039 21.5638 19.0347 21.1702L15.472 20.8282C15.6326 20.8493 15.7816 20.9232 15.8956 21.0382C16.0097 21.1533 16.0824 21.3031 16.1021 21.4641C16.1482 21.842 16.1803 22.2211 16.2139 22.6174C16.2262 22.7628 16.2387 22.9105 16.2522 23.0612L16.2638 23.1911L16.342 23.0868C16.3737 23.0446 16.4017 23.0061 16.4278 22.9701C16.4753 22.9048 16.5166 22.8481 16.5619 22.7936L16.5619 22.7936L16.5624 22.7929C16.6369 22.6998 16.7331 22.6265 16.8426 22.5793C16.9521 22.5321 17.0715 22.5125 17.1902 22.5223C17.309 22.5321 17.4236 22.5709 17.5239 22.6353C17.6242 22.6997 17.7072 22.7878 17.7655 22.8918L17.7656 22.892C17.8499 23.0409 17.9146 23.1986 17.9834 23.3659C18.0158 23.4449 18.0492 23.5261 18.0859 23.6095L18.1188 23.6843L18.1704 23.621C18.2389 23.537 18.3069 23.454 18.3745 23.3715C18.5852 23.1144 18.7913 22.8629 18.9919 22.6072L18.9926 22.6077L18.9969 22.5993C19.0149 22.5647 19.0247 22.5264 19.0257 22.4874C19.0267 22.4484 19.0187 22.4096 19.0025 22.3741L19.0026 22.3741L19.0015 22.3721ZM24.3312 12.6752L24.2879 12.6501L24.2629 12.6935C24.0914 12.9906 23.9201 13.2876 23.7488 13.5844C22.8545 15.1342 21.9623 16.6805 21.0644 18.2359L21.0394 18.2792L21.0827 18.3042L22.4681 19.1034L22.5114 19.1283L22.5364 19.085C23.6037 17.2357 24.662 15.4014 25.7334 13.5441L25.7583 13.5008L25.7151 13.4758L24.3312 12.6752ZM25.5303 10.5999L25.4869 10.5748L25.4619 10.6182L24.663 12.0041L24.6381 12.0474L24.6814 12.0723L26.0647 12.8715L26.1081 12.8965L26.1331 12.8532L26.9304 11.4693L26.9553 11.4261L26.9122 11.4011L25.5303 10.5999ZM20.9723 21.0111L21.009 21.0326L21.0361 20.9998L22.0708 19.7472L22.1085 19.7017L22.0573 19.6721L20.7992 18.9451L20.748 18.9155L20.7273 18.9709L20.1613 20.4881L20.1466 20.5274L20.1829 20.5487L20.9723 21.0111ZM26.226 10.1012H26.0655L26.227 10.1945L26.9207 10.5953L26.9686 10.623L26.9913 10.5725C27.0174 10.5145 27.0517 10.4588 27.0879 10.4013C27.0905 10.3973 27.093 10.3933 27.0955 10.3892C27.1288 10.3365 27.1633 10.2818 27.1902 10.2259C27.2194 10.1652 27.2411 10.1002 27.243 10.0298C27.245 9.95865 27.2266 9.88556 27.1809 9.80933L27.1811 9.80922L27.1784 9.80557C27.1308 9.74017 27.0695 9.68582 26.999 9.64624C26.9284 9.60667 26.8501 9.58279 26.7694 9.57625L26.7694 9.57612L26.7657 9.57609C26.6782 9.57554 26.6066 9.59636 26.5466 9.63339C26.4872 9.67007 26.4421 9.72091 26.4046 9.77622C26.3673 9.83116 26.3361 9.89295 26.3062 9.95226L26.3054 9.9538C26.2795 10.0052 26.2544 10.0549 26.226 10.1012ZM19.9085 21.2127L19.8641 21.1872L19.8397 21.2323C19.8124 21.2826 19.7813 21.3311 19.7496 21.3806C19.7431 21.3907 19.7366 21.4009 19.7301 21.4111C19.6923 21.4704 19.6548 21.5316 19.6273 21.5948C19.5997 21.6583 19.5815 21.7259 19.5838 21.7981C19.5862 21.8709 19.6095 21.9448 19.6595 22.021L19.6593 22.0212L19.6623 22.0249C19.7109 22.0855 19.772 22.1348 19.8416 22.1695C19.9111 22.2041 19.9874 22.2232 20.065 22.2255L20.065 22.2256L20.0685 22.2254C20.2431 22.2184 20.3482 22.1315 20.4244 22.0204C20.4616 21.9661 20.4925 21.9055 20.5215 21.8463C20.5259 21.8372 20.5303 21.8282 20.5347 21.8192C20.5594 21.7686 20.5833 21.7196 20.6105 21.6731L20.6359 21.6296L20.5922 21.6045L19.9085 21.2127Z" fill="#D61116" stroke="white" stroke-width="0.1"/>
<path d="M8.36905 8.05126V8.00126V7.19961V7.1981V7.1481H8.41905H18.1612H18.163L18.163 7.14814C18.2614 7.15174 18.36 7.14753 18.4577 7.13556C18.5509 7.12049 18.6182 7.08249 18.6632 7.02939C18.7085 6.97588 18.7348 6.90268 18.7378 6.8112C18.7378 6.8112 18.7378 6.81119 18.7378 6.81118L8.36905 8.05126ZM8.36905 8.05126H8.41905M8.36905 8.05126H8.41905M8.41905 8.05126H8.72708H8.74551H8.76395H8.78239H8.80083H8.81926H8.8377H8.85614H8.87458H8.89302H8.91145H8.92989H8.94833H8.96677H8.9852H9.00364H9.02208H9.04052H9.05896H9.07739H9.09583H9.11427H9.13271H9.15114H9.16958H9.18802H9.20646H9.2249H9.24333H9.26177H9.28021H9.29865H9.31709H9.33552H9.35396H9.3724H9.39084H9.40927H9.42771H9.44615H9.46459H9.48303H9.50146H9.5199H9.53834H9.55678H9.57522H9.59365H9.61209H9.63053H9.64897H9.66741H9.68584H9.70428H9.72272H9.74116H9.7596H9.77803H9.79647H9.81491H9.83335H9.85178H9.87022H9.88866H9.9071H9.92554H9.94397H9.96241H9.98085H9.99929H10.0177H10.0362H10.0546H10.073H10.0915H10.1099H10.1284H10.1468H10.1652H10.1837H10.2021H10.2205H10.239H10.2574H10.2759H10.2943H10.3127H10.3312H10.3496H10.368H10.3865H10.4049H10.4234H10.4418H10.4602H10.4787H10.4971H10.5156H10.534H10.5524H10.5709H10.5893H10.6077H10.6262H10.6446H10.6631H10.6815H10.6999H10.7184H10.7368H10.7553H10.7737H10.7921H10.8106H10.829H10.8474H10.8659H10.8843H10.9028H10.9212H10.9396H10.9581H10.9765H10.9949H11.0134H11.0318H11.0503H11.0687H11.0871H11.1056H11.124H11.1425H11.1609H11.1793H11.1978H11.2162H11.2346H11.2531H11.2715H11.29H11.3084H11.3268H11.3453H11.3637H11.3822H11.4006H11.419H11.4375H11.4559H11.4743H11.4928H11.5112H11.5297H11.5481H11.5665H11.585H11.6034H11.6218H11.6403H11.6587H11.6772H11.6956H11.714H11.7325H11.7509H11.7694H11.7878H11.8062H11.8247H11.8431H11.8615H11.88H11.8984H11.9169H11.9353H11.9537H11.9722H11.9906H12.0091H12.0275H12.0459H12.0644H12.0828H12.1012H12.1197H12.1381H12.1566H12.175H12.1934H12.2119H12.2303H12.2488H12.2672H12.2856H12.3041H12.3225H12.3409H12.3594H12.3778H12.3963H12.4147H12.4331H12.4516H12.47H12.4885H12.5069H12.5253H12.5438H12.5622H12.5806H12.5991H12.6175H12.636H12.6544H12.6728H12.6913H12.7097H12.7282H12.7466H12.765H12.7835H12.8019H12.8203H12.8388H12.8572H12.8757H12.8941H12.9125H12.931H12.9494H12.9679H12.9863H13.0047H13.0232H13.0416H13.0601H13.0785H13.0969H13.1154H13.1338H13.1522H13.1707H13.1891H13.2076H13.226H13.2444H13.2629H13.2813H13.2998H13.3182H13.3366H13.3551H13.3735H13.3919H13.4104H13.4288H13.4473H13.4657H13.4841H13.5026H13.521H13.5395H13.5579H13.5763H13.5948H13.6132H13.6317H13.6501H13.6685H13.687H13.7054H13.7238H13.7423H13.7607H13.7792H13.7976H13.816H13.8345H13.8529H13.8714H13.8898H13.9082H13.9267H13.9451H13.9635H13.982H14.0004H14.0189H14.0373H14.0557H14.0742H14.0926H14.1111H14.1295H14.1479H14.1664H14.1848H14.2033H14.2217H14.2401H14.2586H14.277H14.2954H14.3139H14.3323H14.3508H14.3692H14.3876H14.4061H14.4245H14.443H14.4614H14.4798H14.4983H14.5167H14.5352H14.5536H14.572H14.5905H14.6089H14.6273H14.6458H14.6642H14.6827H14.7011H14.7195H14.738H14.7564H14.7749H14.7933H14.8117H14.8302H14.8486H14.8671H14.8855H14.9039H14.9224H14.9408H14.9593H14.9777H14.9961H15.0146H15.033H15.0514H15.0699H15.0883H15.1068H15.1252H15.1436H15.1621H15.1805H15.199H15.2174H15.2358H15.2543H15.2727H15.2912H15.3096H15.328H15.3465H15.3649H15.3834H15.4018H15.4202H15.4387H15.4571H15.4755H15.494H15.5124H15.5309H15.5493H15.5677H15.5862H15.6046H15.6231H15.6415H15.6599H15.6784H15.6968H15.7153H15.7337H15.7521H15.7706H15.789H15.8075H15.8259H15.8443H15.8628H15.8812H15.8996H15.9181H15.9365H15.955H15.9734H15.9918H16.0103H16.0287H16.0472H16.0656H16.084H16.1025H16.1209H16.1394H16.1578H16.1762H16.1947H16.2131H16.2316H16.25H16.2684H16.2869H16.3053H16.3238H16.3422H16.3606H16.3791H16.3975H16.4159H16.4344H16.4528H16.4713H16.4897H16.5081H16.5266H16.545H16.5635H16.5819H16.6003H16.6188H16.6372H16.6557H16.6741H16.6925H16.711H16.7294H16.7479H16.7663H16.7847H16.8032H16.8216H16.8401H16.8585H16.8769H16.8954H16.9138H16.9323H16.9507H16.9691H16.9876H17.006H17.0244H17.0429H17.0613H17.0798H17.0982H17.1166H17.1351H17.1535H17.172H17.1904H17.2088H17.2273H17.2457H17.2642H17.2826H17.301H17.3195H17.3379H17.3564H17.3748H17.3932H17.4117H17.4301H17.4486H17.467H17.4854H17.5039H17.5223H17.5408H17.5592H17.5776H17.5961H17.6145H17.633H17.6514H17.6698H17.6883H17.7067H17.7252H17.7436H17.762H17.7805H17.7989H17.8173H17.8358H17.8542H17.8727H17.8911H17.9095H17.928H17.9464H17.9649H17.9833H18.0017H18.0202H18.0386H18.0571H18.0755H18.0939H18.1124H18.1308H18.1493H18.1677V8.05129M8.41905 8.05126L18.1677 8.05129M18.1677 8.05129L18.1695 8.05123M18.1677 8.05129L18.1695 8.05123M18.1695 8.05123C18.2817 8.04723 18.3939 8.05738 18.5036 8.08144C18.588 8.10381 18.6476 8.14727 18.6858 8.20328C18.7244 8.25992 18.7434 8.33296 18.7398 8.41747C18.7362 8.50213 18.7114 8.57245 18.6684 8.62516C18.6259 8.67741 18.5626 8.71594 18.475 8.73263C18.3858 8.74719 18.2954 8.75332 18.2051 8.75093V8.75091M18.1695 8.05123L18.2051 8.75091M18.2051 8.75091H18.2038M18.2051 8.75091H18.2038M18.2038 8.75091H18.1842H18.1647H18.1452H18.1256H18.1061H18.0866H18.067H18.0475H18.0279H18.0084H17.9889H17.9693H17.9498H17.9303H17.9107H17.8912H17.8717H17.8521H17.8326H17.8131H17.7935H17.774H17.7544H17.7349H17.7154H17.6958H17.6763H17.6568H17.6372H17.6177H17.5982H17.5786H17.5591H17.5396H17.52H17.5005H17.481H17.4614H17.4419H17.4223H17.4028H17.3833H17.3637H17.3442H17.3247H17.3051H17.2856H17.2661H17.2465H17.227H17.2075H17.1879H17.1684H17.1488H17.1293H17.1098H17.0902H17.0707H17.0512H17.0316H17.0121H16.9926H16.973H16.9535H16.934H16.9144H16.8949H16.8754H16.8558H16.8363H16.8167H16.7972H16.7777H16.7581H16.7386H16.7191H16.6995H16.68H16.6605H16.6409H16.6214H16.6019H16.5823H16.5628H16.5432H16.5237H16.5042H16.4846H16.4651H16.4456H16.426H16.4065H16.387H16.3674H16.3479H16.3284H16.3088H16.2893H16.2697H16.2502H16.2307H16.2111H16.1916H16.1721H16.1525H16.133H16.1135H16.0939H16.0744H16.0549H16.0353H16.0158H15.9962H15.9767H15.9572H15.9376H15.9181H15.8986H15.879H15.8595H15.84H15.8204H15.8009H15.7814H15.7618H15.7423H15.7227H15.7032H15.6837H15.6641H15.6446H15.6251H15.6055H15.586H15.5665H15.5469H15.5274H15.5079H15.4883H15.4688H15.4492H15.4297H15.4102H15.3906H15.3711H15.3516H15.332H15.3125H15.293H15.2734H15.2539H15.2343H15.2148H15.1953H15.1757H15.1562H15.1367H15.1171H15.0976H15.0781H15.0585H15.039H15.0195H14.9999H14.9804H14.9608H14.9413H14.9218H14.9022H14.8827H14.8632H14.8436H14.8241H14.8046H14.785H14.7655H14.746H14.7264H14.7069H14.6873H14.6678H14.6483H14.6287H14.6092H14.5897H14.5701H14.5506H14.5311H14.5115H14.492H14.4724H14.4529H14.4334H14.4138H14.3943H14.3748H14.3552H14.3357H14.3162H14.2966H14.2771H14.2575H14.238H14.2185H14.1989H14.1794H14.1599H14.1403H14.1208H14.1013H14.0817H14.0622H14.0427H14.0231H14.0036H13.984H13.9645H13.945H13.9254H13.9059H13.8864H13.8668H13.8473H13.8278H13.8082H13.7887H13.7691H13.7496H13.7301H13.7105H13.691H13.6715H13.6519H13.6324H13.6129H13.5933H13.5738H13.5542H13.5347H13.5152H13.4956H13.4761H13.4566H13.437H13.4175H13.398H13.3784H13.3589H13.3393H13.3198H13.3003H13.2807H13.2612H13.2417H13.2221H13.2026H13.1831H13.1635H13.144H13.1244H13.1049H13.0854H13.0658H13.0463H13.0268H13.0072H12.9877H12.9682H12.9486H12.9291H12.9096H12.89H12.8705H12.8509H12.8314H12.8119H12.7923H12.7728H12.7533H12.7337H12.7142H12.6947H12.6751H12.6556H12.636H12.6165H12.597H12.5774H12.5579H12.5384H12.5188H12.4993H12.4797H12.4602H12.4407H12.4211H12.4016H12.3821H12.3625H12.343H12.3235H12.3039H12.2844H12.2648H12.2453H12.2258H12.2062H12.1867H12.1672H12.1476H12.1281H12.1086H12.089H12.0695H12.0499H12.0304H12.0109H11.9913H11.9718H11.9523H11.9327H11.9132H11.8937H11.8741H11.8546H11.835H11.8155H11.796H11.7764H11.7569H11.7374H11.7178H11.6983H11.6788H11.6592H11.6397H11.6201H11.6006H11.5811H11.5615H11.542H11.5225H11.5029H11.4834H11.4638H11.4443H11.4248H11.4052H11.3857H11.3662H11.3466H11.3271H11.3076H11.288H11.2685H11.2489H11.2294H11.2099H11.1903H11.1708H11.1513H11.1317H11.1122H11.0927H11.0731H11.0536H11.034H11.0145H10.995H10.9754H10.9559H10.9364H10.9168H10.8973H10.8777H10.8582H10.8387H10.8191H10.7996H10.7801H10.7605H10.741H10.7215H10.7019H10.6824H10.6628H10.6433H10.6238H10.6042H10.5847H10.5652H10.5456H10.5261H10.5065H10.487H10.4675H10.4479H10.4284H10.4089H10.3893H10.3698H10.3503H10.3307H10.3112H10.2916H10.2721H10.2526H10.233H10.2135H10.194H10.1744H10.1549H10.1353H10.1158H10.0963H10.0767H10.0572H10.0377H10.0181H9.99859H9.97905H9.95952H9.93998H9.92044H9.90091H9.88137H9.86183H9.84229H9.82276H9.80322H9.78368H9.76415H9.74461H9.72507H9.70554H9.686H9.66646H9.64693H9.62739H9.60785H9.58831H9.56878H9.54924H9.5297H9.51017H9.49063H9.47109H9.45156H9.43202H9.41248H9.39294H9.37341H9.35387H9.33433H9.3148H9.29526H9.27572H9.25618H9.23665H9.21711H9.19757H9.17804H9.1585H9.13896H9.11942H9.09989H9.08035H9.06081H9.04128H9.02174H9.0022H8.98267H8.96313H8.94359H8.92405H8.90452H8.88498H8.86544H8.84591H8.82637H8.80683H8.78729H8.76776H8.74822H8.72868H8.70914H8.68961H8.67007H8.65053H8.631H8.61146H8.59192H8.57238H8.55285H8.53331H8.51377H8.49424H8.4747H8.45516H8.43562H8.41609H8.39655H8.37701H8.35747H8.33794H8.3184H8.29886H8.27933H8.25979H8.24025H8.22071H8.20118C7.9579 8.75091 7.83026 8.72204 7.75875 8.65066C7.68725 8.5793 7.65841 8.45201 7.65816 8.20964L7.60816 8.20969H7.65816C7.65816 8.06095 7.65783 7.91234 7.65749 7.76381C7.65683 7.46706 7.65616 7.17065 7.65816 6.87427L7.60816 6.87393L7.65816 6.87442C7.6596 6.72548 7.6946 6.62619 7.75714 6.56164C7.81984 6.49692 7.91853 6.45851 8.06636 6.44987L8.06344 6.39996L8.06619 6.44988C8.10087 6.44797 8.13429 6.44859 8.16964 6.44925C8.18831 6.4496 8.20751 6.44996 8.22772 6.44996H8.24717H8.26661H8.28606H8.3055H8.32495H8.34439H8.36384H8.38328H8.40273H8.42217H8.44162H8.46106H8.48051H8.49996H8.5194H8.53885H8.55829H8.57774H8.59718H8.61663H8.63607H8.65552H8.67496H8.69441H8.71385H8.7333H8.75274H8.77219H8.79164H8.81108H8.83053H8.84997H8.86942H8.88886H8.90831H8.92775H8.9472H8.96664H8.98609H9.00553H9.02498H9.04442H9.06387H9.08332H9.10276H9.12221H9.14165H9.1611H9.18054H9.19999H9.21943H9.23888H9.25832H9.27777H9.29721H9.31666H9.3361H9.35555H9.37499H9.39444H9.41389H9.43333H9.45278H9.47222H9.49167H9.51111H9.53056H9.55H9.56945H9.58889H9.60834H9.62778H9.64723H9.66668H9.68612H9.70557H9.72501H9.74446H9.7639H9.78335H9.80279H9.82224H9.84168H9.86113H9.88057H9.90002H9.91946H9.93891H9.95835H9.9778H9.99725H10.0167H10.0361H10.0556H10.075H10.0945H10.1139H10.1334H10.1528H10.1723H10.1917H10.2111H10.2306H10.25H10.2695H10.2889H10.3084H10.3278H10.3473H10.3667H10.3862H10.4056H10.425H10.4445H10.4639H10.4834H10.5028H10.5223H10.5417H10.5612H10.5806H10.6001H10.6195H10.6389H10.6584H10.6778H10.6973H10.7167H10.7362H10.7556H10.7751H10.7945H10.8139H10.8334H10.8528H10.8723H10.8917H10.9112H10.9306H10.9501H10.9695H10.989H11.0084H11.0278H11.0473H11.0667H11.0862H11.1056H11.1251H11.1445H11.164H11.1834H11.2029H11.2223H11.2417H11.2612H11.2806H11.3001H11.3195H11.339H11.3584H11.3779H11.3973H11.4168H11.4362H11.4556H11.4751H11.4945H11.514H11.5334H11.5529H11.5723H11.5918H11.6112H11.6307H11.6501H11.6695H11.689H11.7084H11.7279H11.7473H11.7668H11.7862H11.8057H11.8251H11.8446H11.864H11.8834H11.9029H11.9223H11.9418H11.9612H11.9807H12.0001H12.0196H12.039H12.0585H12.0779H12.0973H12.1168H12.1362H12.1557H12.1751H12.1946H12.214H12.2335H12.2529H12.2723H12.2918H12.3112H12.3307H12.3501H12.3696H12.389H12.4085H12.4279H12.4474H12.4668H12.4862H12.5057H12.5251H12.5446H12.564H12.5835H12.6029H12.6224H12.6418H12.6613H12.6807H12.7001H12.7196H12.739H12.7585H12.7779H12.7974H12.8168H12.8363H12.8557H12.8752H12.8946H12.914H12.9335H12.9529H12.9724H12.9918H13.0113H13.0307H13.0502H13.0696H13.0891H13.1085H13.1279H13.1474H13.1668H13.1863H13.2057H13.2252H13.2446H13.2641H13.2835H13.303H13.3224H13.3418H13.3613H13.3807H13.4002H13.4196H13.4391H13.4585H13.478H13.4974H13.5169H13.5363H13.5557H13.5752H13.5946H13.6141H13.6335H13.653H13.6724H13.6919H13.7113H13.7307H13.7502H13.7696H13.7891H13.8085H13.828H13.8474H13.8669H13.8863H13.9058H13.9252H13.9446H13.9641H13.9835H14.003H14.0224H14.0419H14.0613H14.0808H14.1002H14.1197H14.1391H14.1585H14.178H14.1974H14.2169H14.2363H14.2558H14.2752H14.2947H14.3141H14.3336H14.353H14.3724H14.3919H14.4113H14.4308H14.4502H14.4697H14.4891H14.5086H14.528H14.5475H14.5669H14.5863H14.6058H14.6252H14.6447H14.6641H14.6836H14.703H14.7225H14.7419H14.7614H14.7808H14.8002H14.8197H14.8391H14.8586H14.878H14.8975H14.9169H14.9364H14.9558H14.9753H14.9947H15.0141H15.0336H15.053H15.0725H15.0919H15.1114H15.1308H15.1503H15.1697H15.1891H15.2086H15.228H15.2475H15.2669H15.2864H15.3058H15.3253H15.3447H15.3642H15.3836H15.403H15.4225H15.4419H15.4614H15.4808H15.5003H15.5197H15.5392H15.5586H15.5781H15.5975H15.6169H15.6364H15.6558H15.6753H15.6947H15.7142H15.7336H15.7531H15.7725H15.792H15.8114H15.8308H15.8503H15.8697H15.8892H15.9086H15.9281H15.9475H15.967H15.9864H16.0059H16.0253H16.0447H16.0642H16.0836H16.1031H16.1225H16.142H16.1614H16.1809H16.2003H16.2198H16.2392H16.2586H16.2781H16.2975H16.317H16.3364H16.3559H16.3753H16.3948H16.4142H16.4337H16.4531H16.4725H16.492H16.5114H16.5309H16.5503H16.5698H16.5892H16.6087H16.6281H16.6475H16.667H16.6864H16.7059H16.7253H16.7448H16.7642H16.7837H16.8031H16.8226H16.842H16.8614H16.8809H16.9003H16.9198H16.9392H16.9587H16.9781H16.9976H17.017H17.0365H17.0559H17.0753H17.0948H17.1142H17.1337H17.1531H17.1726H17.192H17.2115H17.2309H17.2504H17.2698H17.2892H17.3087H17.3281H17.3476H17.367H17.3865H17.4059H17.4254H17.4448H17.4643H17.4837H17.5031H17.5226H17.542H17.5615H17.5809H17.6004H17.6198H17.6393H17.6587H17.6782H17.6976H17.717H17.7365H17.7559H17.7754H17.7948H17.8143H17.8337H17.8532H17.8726H17.892H17.9115H17.9309H17.9504H17.9698H17.9893H18.0087H18.0282H18.0476H18.0671H18.0865H18.1059H18.1254H18.1448H18.1643L18.1837 6.44997L18.1848 6.44995M18.2038 8.75091L18.1848 6.44995M18.1848 6.44995C18.2895 6.44769 18.3942 6.45786 18.4965 6.48024L18.1848 6.44995Z" fill="#D61116" stroke="#D61116" stroke-width="0.1"/>
<path d="M9.0341 19.6072C9.70919 19.6125 10.3672 19.82 10.9233 20.2029C11.1883 20.3833 11.2664 20.5952 11.1372 20.8077C11.008 21.0201 10.7686 21.0542 10.5041 20.8783C10.1105 20.6063 9.65106 20.445 9.17384 20.4113C7.7459 20.3222 6.55487 21.3543 6.41563 22.8013C6.2829 24.1666 7.30264 25.3926 8.73008 25.5835C10.0589 25.7614 11.3345 24.7914 11.5634 23.4246C11.5865 23.2868 11.589 23.1455 11.6055 23.0062C11.6355 22.7497 11.8098 22.5913 12.0372 22.6094C12.2566 22.6264 12.3948 22.7937 12.3998 23.0473C12.4374 24.9672 10.6008 26.6146 8.68 26.3832C6.97709 26.1777 5.73396 24.8916 5.61576 23.2116C5.47853 21.2696 7.07175 19.5906 9.0341 19.6072Z" fill="#D61116"/>
<path d="M15.1891 13.198H11.0235C10.9378 13.2006 10.852 13.1979 10.7666 13.19C10.5617 13.1654 10.443 13.0462 10.42 12.8392C10.3969 12.6323 10.5091 12.4775 10.715 12.4249C10.7982 12.4057 10.8835 12.3968 10.9689 12.3983C13.7937 12.3983 16.6184 12.3983 19.4429 12.3983C19.5446 12.3945 19.6463 12.4082 19.7434 12.4389C19.9252 12.505 20.0113 12.6488 19.9908 12.8432C19.9869 12.9262 19.9543 13.0052 19.8987 13.0669C19.8431 13.1285 19.7679 13.169 19.6858 13.1814C19.5932 13.1956 19.4994 13.2005 19.4058 13.196L15.1891 13.198Z" fill="#D61116"/>
<path d="M11.1963 15.6014H7.40532C7.00163 15.6014 6.81431 15.4717 6.81632 15.2006C6.81832 14.9295 7.00714 14.7998 7.41133 14.7998C9.93865 14.7998 12.4658 14.7998 14.9928 14.7998C15.0936 14.7971 15.1943 14.8055 15.2933 14.8248C15.4961 14.8709 15.5938 15.0117 15.5898 15.2156C15.5843 15.4095 15.4806 15.5393 15.2893 15.5789C15.1901 15.5958 15.0894 15.603 14.9888 15.6004C13.7243 15.6018 12.4601 15.6021 11.1963 15.6014Z" fill="#D61116"/>
<path d="M13.2122 9.60407H17.0037C17.4079 9.60407 17.5982 9.73384 17.5962 10.0049C17.5942 10.276 17.4019 10.4057 16.9992 10.4057C14.4716 10.4057 11.9441 10.4057 9.41676 10.4057C9.3077 10.4091 9.19865 10.3986 9.0922 10.3747C8.90188 10.3246 8.80972 10.1793 8.81673 9.99037C8.82374 9.80148 8.92392 9.6642 9.11725 9.62612C9.21654 9.60975 9.31718 9.60304 9.41776 9.60608C10.6839 9.60407 11.9488 9.6034 13.2122 9.60407Z" fill="#D61116"/>
<path d="M9.20239 17.5975C8.57031 17.5975 7.93773 17.5975 7.30565 17.5975C6.98611 17.5975 6.81031 17.4472 6.81581 17.1922C6.82082 16.9497 6.99763 16.8009 7.30114 16.8004C8.57399 16.7977 9.84649 16.7977 11.1187 16.8004C11.4147 16.8004 11.5985 16.9602 11.5995 17.2012C11.6005 17.4422 11.4207 17.5975 11.1227 17.5991C10.4826 17.5996 9.84249 17.5975 9.20239 17.5975Z" fill="#D61116"/>
<path d="M8.89437 23.3599C9.36066 22.8895 9.78288 22.4521 10.2206 22.0307C10.3208 21.936 10.4756 21.8418 10.5988 21.8498C10.722 21.8578 10.8953 21.9786 10.9258 22.0843C10.9422 22.16 10.9422 22.2384 10.9258 22.3141C10.9094 22.3898 10.877 22.4611 10.8307 22.5232C10.5166 22.8794 10.168 23.2046 9.83197 23.5413C9.70525 23.6681 9.58154 23.8003 9.44881 23.9181C9.12025 24.2067 8.68801 24.2152 8.36646 23.9216C8.06595 23.6485 7.78297 23.3584 7.50399 23.0643C7.3327 22.8839 7.33821 22.654 7.49147 22.4971C7.65274 22.3313 7.88314 22.3288 8.07396 22.5147C8.34693 22.7807 8.60537 23.0608 8.89437 23.3599Z" fill="#D61116"/>
<path d="M18.1882 15.6004C17.744 15.6004 17.2997 15.6064 16.8555 15.6004C16.586 15.5954 16.4342 15.4611 16.4157 15.2432C16.3972 15.0252 16.5219 14.8454 16.7548 14.8208C16.9877 14.7963 17.2366 14.8023 17.478 14.8018C18.1171 14.7998 18.7562 14.7998 19.3953 14.8018C19.4808 14.7999 19.5663 14.8056 19.6507 14.8188C19.8731 14.8579 20.0054 15.0132 19.9898 15.2221C19.9743 15.4311 19.8531 15.5779 19.6392 15.5884C19.2886 15.6059 18.938 15.5999 18.5874 15.6034C18.4547 15.6034 18.3225 15.6034 18.1898 15.6034L18.1882 15.6004Z" fill="#D61116"/>
<path d="M14.1994 17.5975C13.7627 17.5975 13.3259 17.6 12.8892 17.5975C12.5917 17.5975 12.4074 17.4412 12.4059 17.2032C12.4044 16.9652 12.5912 16.8024 12.8857 16.8024C13.7669 16.7991 14.648 16.7991 15.5292 16.8024C15.8207 16.8024 16.0065 16.9748 15.9995 17.2127C15.9925 17.4507 15.8157 17.596 15.5332 17.5985C15.0884 17.6005 14.6437 17.5975 14.1994 17.5975Z" fill="#D61116"/>
</g>
<defs>
<clipPath id="clip0_1001_60">
<rect width="24" height="24" fill="white" transform="translate(4 4)"/>
</clipPath>
</defs>
</svg>
