<svg width="32" height="32" viewBox="0 0 32 32" fill="none" xmlns="http://www.w3.org/2000/svg">
<g clip-path="url(#clip0_1001_12)">
<path d="M5.55155 15.6097C5.70154 12.88 6.69906 10.5327 8.62299 8.61313C10.5469 6.69357 12.8807 5.70181 15.6134 5.5545C15.6134 5.19527 15.6134 4.84379 15.6134 4.49231C15.6134 4.14084 15.7492 4.00128 16.1131 4.00192C21.6464 4.01549 26.5267 7.96962 27.7155 13.402C28.3507 16.2638 27.9156 19.2591 26.4923 21.8222C25.069 24.3853 22.7561 26.339 19.9901 27.3145C13.3313 29.6798 6.00926 25.7199 4.34522 18.8506C4.1242 17.95 4.00899 17.0267 4.00194 16.0995C4.00194 15.7506 4.13447 15.613 4.47904 15.6104C4.82361 15.6078 5.18371 15.6097 5.55155 15.6097ZM8.90421 22.5314C8.94429 22.4952 8.98696 22.4597 9.02575 22.4216C11.1807 20.2679 13.3341 18.1127 15.486 15.956C15.5625 15.8695 15.6062 15.7588 15.6095 15.6433C15.616 12.6217 15.6175 9.59994 15.614 6.57792C15.614 6.49974 15.6076 6.42157 15.6044 6.34339C12.2355 6.42803 8.484 8.54012 6.94925 12.5679C5.51535 16.3327 6.69841 20.2856 8.90421 22.5314ZM16.4034 15.5891H27.2158C26.9844 9.37295 21.8287 4.88837 16.4021 4.79921L16.4034 15.5891ZM19.4878 25.0163C20.6025 24.588 21.627 23.9547 22.5081 23.1491L16.0013 16.6422L9.49186 23.1465C10.3737 23.953 11.4 24.5858 12.5168 25.0118C12.5168 24.095 12.5168 23.2169 12.5168 22.3389C12.5168 21.9234 12.6357 21.8026 13.0436 21.802H14.0651V21.508C14.0651 20.7327 14.0651 19.9606 14.0651 19.1872C14.0651 18.8409 14.2015 18.7078 14.5506 18.7058C14.9941 18.7058 15.4376 18.7058 15.881 18.7058C16.2592 18.7058 16.3859 18.8351 16.3872 19.215C16.3872 19.5581 16.3872 19.9011 16.3872 20.2539C16.7609 20.2539 17.0984 20.2539 17.4371 20.2539C17.8017 20.2539 17.9336 20.3831 17.9356 20.7475C17.9356 21.0912 17.9356 21.4356 17.9356 21.802H18.582C19.4839 21.802 19.4839 21.802 19.4839 22.6903V25.0163H19.4878ZM17.0247 16.3922L23.1481 22.5159C24.6997 20.7876 25.5485 18.7498 25.6694 16.3922H17.0247ZM4.79064 16.3922C4.95808 22.4959 10.309 27.7635 17.013 27.1665C23.1831 26.6147 27.1628 21.3361 27.1919 16.3999H26.4588C26.2842 21.7031 22.0091 26.1722 16.5088 26.4338C14.0302 26.5521 11.7655 25.8788 9.77955 24.3851C7.12897 22.3906 5.75584 19.6957 5.5438 16.3922H4.79064ZM15.5979 25.6682V19.4993H14.8512V25.6017L15.5979 25.6682ZM17.1462 25.6036V21.0473H16.3892V25.6656L17.1462 25.6036ZM17.9556 22.587V25.4776L18.7004 25.2909V22.5876L17.9556 22.587ZM14.0483 25.4776V22.5876H13.3029V25.289L14.0483 25.4776Z" fill="#D61116"/>
<path d="M12.0808 11.4194H11.4104C11.405 11.5297 11.4005 11.6266 11.3966 11.7211L11.3949 11.7611L11.3554 11.7682C11.0012 11.8316 10.7217 11.9635 10.5337 12.1484C10.3469 12.3321 10.2478 12.5705 10.2568 12.8548C10.2747 13.1081 10.3533 13.3533 10.4861 13.5697L10.4865 13.5703L10.4865 13.5703C10.6657 13.8716 10.9902 13.9867 11.3436 14.0203L11.3889 14.0246V14.0701V14.8196V14.8448L11.3686 14.8598L11.304 14.9076L11.2683 14.9339L11.2379 14.9017L10.8648 14.5071H10.215C10.2364 14.5628 10.2561 14.6178 10.2751 14.671C10.2895 14.7112 10.3036 14.7503 10.3176 14.7879L12.0808 11.4194ZM12.0808 11.4194V11.7086V11.7485L12.1197 11.7574C12.5026 11.8451 12.777 11.9787 12.9569 12.1624C13.1255 12.3345 13.2151 12.5548 13.2292 12.8345H12.5677C12.5419 12.7479 12.5048 12.6657 12.4449 12.601C12.375 12.5254 12.2781 12.478 12.1447 12.4702L12.0918 12.4671V12.5201V13.2657V13.3072L12.1326 13.3149C12.502 13.3843 12.7822 13.5245 12.9681 13.7203C13.1532 13.9152 13.2484 14.1691 13.2419 14.4741V14.4741C13.2357 14.7649 13.1294 15.0129 12.9411 15.2009C12.7524 15.3892 12.4786 15.5198 12.134 15.5693L12.0933 15.5752L12.0912 15.6162C12.0861 15.7155 12.081 15.8178 12.0755 15.93H11.4121V15.6214V15.5758L11.3667 15.5716C10.9804 15.5362 10.6555 15.4016 10.4574 15.0869L12.0808 11.4194ZM11.3393 13.3191L11.3966 13.3275V13.2696V12.5214V12.4669L11.3423 12.4716C11.2156 12.4826 11.114 12.5229 11.0417 12.5954C10.9693 12.668 10.9319 12.767 10.9225 12.8844C10.9128 13.0059 10.9466 13.1071 11.0228 13.1824C11.0972 13.256 11.2069 13.2995 11.3393 13.3191ZM12.0918 14.8377V14.8987L12.1517 14.8867C12.2779 14.8613 12.3822 14.8148 12.4545 14.74C12.5279 14.6639 12.5634 14.5637 12.5609 14.4419C12.5585 14.3216 12.523 14.2215 12.4502 14.1476C12.378 14.0743 12.2748 14.0326 12.1478 14.0172L12.0918 14.0105V14.0669V14.8377Z" fill="#D61116" stroke="white" stroke-width="0.1"/>
<path d="M19.5304 11.7824L19.4925 11.7548L19.4105 11.6953L19.4093 11.6943L19.4093 11.6943C19.3032 11.612 19.2086 11.5744 19.1258 11.5735C19.0447 11.5726 18.9672 11.6067 18.8935 11.6842C18.821 11.7606 18.7908 11.8461 18.798 11.9338C18.8052 12.0228 18.8514 12.12 18.9434 12.2164L18.9435 12.2165C19.0397 12.3179 19.1381 12.4168 19.2388 12.5132L19.2389 12.5133C19.3571 12.627 19.4621 12.6734 19.5577 12.6682C19.6535 12.6629 19.7544 12.6053 19.8626 12.4775C20.0698 12.2326 20.2745 11.9853 20.4793 11.7379C20.5678 11.631 20.6563 11.5241 20.7451 11.4173L19.5304 11.7824ZM19.5304 11.7824L19.5603 11.7463M19.5304 11.7824L19.5603 11.7463M19.5603 11.7463L21.1376 9.84849C21.1376 9.84845 21.1376 9.84841 21.1377 9.84838M19.5603 11.7463L21.1377 9.84838M21.8277 10.1874C21.9896 9.98808 21.954 9.74362 21.7827 9.60572C21.6114 9.46782 21.39 9.49352 21.22 9.67342C21.1908 9.7048 21.1637 9.73796 21.1366 9.77106C21.1242 9.78622 21.1119 9.80137 21.0993 9.81633L21.8277 10.1874ZM21.8277 10.1874C21.5777 10.497 21.3225 10.8029 21.0672 11.1088M21.8277 10.1874L21.0672 11.1088M21.1377 9.84838C21.1512 9.83232 21.164 9.81662 21.1766 9.80121C21.203 9.76883 21.2284 9.73777 21.2564 9.70761C21.3349 9.62471 21.4224 9.58009 21.5068 9.57004C21.5907 9.56004 21.6755 9.58367 21.7513 9.64467C21.9005 9.76472 21.9338 9.97746 21.7889 10.1559L21.7888 10.156C21.5391 10.4652 21.2842 10.7707 21.0291 11.0764C20.9344 11.1899 20.8396 11.3035 20.7451 11.4173L21.1377 9.84838ZM21.0672 11.1088C20.9726 11.2222 20.8779 11.3356 20.7836 11.4492L21.0672 11.1088Z" fill="#D61116" stroke="#D61116" stroke-width="0.1"/>
</g>
<defs>
<clipPath id="clip0_1001_12">
<rect width="24" height="24" fill="white" transform="translate(4 4)"/>
</clipPath>
</defs>
</svg>
